<svg width="120" height="39" viewBox="0 0 120 39" xmlns="http://www.w3.org/2000/svg" xmlns:xlink="http://www.w3.org/1999/xlink">
    <defs>
        <path id="92byqkra0a" d="M0 0h119.977v39H0z"/>
    </defs>
    <g fill="none" fill-rule="evenodd">
        <mask id="ismj0l7d3b" fill="#fff">
            <use xlink:href="#92byqkra0a"/>
        </mask>
        <g mask="url(#ismj0l7d3b)">
            <path d="m113.326 26.545-3.164 12.368H0l9.105-12.368h104.22z" fill="#E58E1A" fill-rule="nonzero"/>
            <path d="M25.926 28.999c-2.292 0-3.939 1.615-3.939 3.778 0 1.518 1.195 3.585 3.875 3.585 1.13 0 1.904-.259 2.615-.646v-1.13c-.807.516-1.68.807-2.519.807-1.71 0-2.905-1.13-2.905-2.713 0-1.582 1.227-2.744 2.873-2.744.84 0 1.582.226 2.486.742V29.58h-.032c-.969-.42-1.711-.581-2.454-.581z" fill="#000007" fill-rule="nonzero"/>
            <path d="M33.546 36.362c2.421 0 3.874-1.744 3.874-3.682 0-2.002-1.485-3.681-3.874-3.681-2.325 0-3.842 1.68-3.842 3.681 0 1.938 1.485 3.682 3.842 3.682zm0-6.426c1.614 0 2.809 1.162 2.809 2.744 0 1.583-1.195 2.745-2.81 2.745-1.581 0-2.776-1.162-2.776-2.745 0-1.582 1.195-2.744 2.777-2.744z" fill="#000007"/>
            <path d="M44.878 29.096v5.554l-4.875-5.554h-.807v7.169h.968v-5.522l4.811 5.522h.872v-7.17h-.969zM49.754 28.999c-1.324 0-2.164.743-2.164 1.905 0 1.97 3.1 2.132 3.1 3.617 0 .388-.355.904-1.162.904-.71 0-1.356-.355-1.905-1.033v1.292c.613.452 1.227.678 2.001.678 1.163 0 2.002-.808 2.002-1.938 0-2.293-3.1-2.26-3.1-3.649 0-.517.485-.84 1.13-.84.485 0 1.066.162 1.68.743v-1.162h.032c-.517-.323-1.066-.517-1.614-.517zM52.466 29.096v.936h2.486v6.233h1.033v-6.233h2.486v-.936h-6.005z" fill="#000007" fill-rule="nonzero"/>
            <path d="M59.762 36.265h1.034v-3.1h.42c.516 0 .968.161 1.904 1.647l.936 1.485h1.227c-.484-.678-.678-.936-.968-1.42-.55-.905-.937-1.55-1.615-2.003.775-.29 1.195-.937 1.195-1.744 0-1.227-.904-2.002-2.357-2.002h-1.776v-.032 7.169zm1.712-6.297c1 0 1.388.42 1.42 1.098 0 .613-.29 1.162-1.42 1.162h-.678v-2.26h.678z" fill="#000007"/>
            <path d="M71.32 29.096v4.165c0 .679-.096 1.195-.451 1.583-.323.323-.904.581-1.679.581-.613 0-1.13-.194-1.55-.613-.323-.323-.42-.679-.42-1.486v-4.23h-1.033v4.456c0 1.97 1.486 2.81 3.003 2.81 2.13 0 3.196-1.163 3.196-2.907v-4.36h-1.065zM77.94 28.999c-2.293 0-3.94 1.615-3.94 3.778 0 1.518 1.195 3.585 3.875 3.585 1.13 0 1.905-.259 2.615-.646v-1.13c-.807.516-1.679.807-2.518.807-1.711 0-2.906-1.13-2.906-2.713 0-1.582 1.227-2.744 2.874-2.744.84 0 1.582.226 2.486.742V29.58h-.032c-.97-.42-1.712-.581-2.454-.581zM81.459 29.096v.936h2.454v6.233h1.033v-6.233h2.486v-.936h-5.973zM88.723 29.096v7.169h1.033v-7.17h-1.033z" fill="#000007" fill-rule="nonzero"/>
            <path d="M95.407 36.362c2.421 0 3.874-1.744 3.874-3.682 0-2.002-1.485-3.681-3.874-3.681-2.325 0-3.842 1.68-3.842 3.681 0 1.938 1.485 3.682 3.842 3.682zm0-6.426c1.614 0 2.809 1.162 2.809 2.744 0 1.583-1.195 2.745-2.81 2.745-1.581 0-2.776-1.162-2.776-2.745 0-1.582 1.195-2.744 2.777-2.744z" fill="#000007"/>
            <path d="M106.74 29.096v5.554l-4.876-5.554h-.807v7.169h.968v-5.522l4.811 5.522h.872v-7.17h-.969z" fill="#000007" fill-rule="nonzero"/>
            <path d="m119.977.775-1.453 5.684h-14.432l-.775 2.841h13.818l-1.194 4.618h-13.819l-.742 2.842h14.496l-1.453 5.716H91.597L97.15.775h22.827zM74.065 14.887c0 .065-.097 3.165 4.488 3.165 3.132 0 3.584-.97 3.713-1.453.161-.808-.387-1.228-1.582-1.518-3.745-.904-8.847-2.551-10.203-3.359-.936-.581-2.356-1.808-2.356-4.327 0-3.326 3.938-7.46 12.43-7.395 4.23.032 6.845.872 8.427 1.582 3.39 1.518 3.648 4.747 3.583 6.104h-8.362c-.021-1.636-1.194-2.498-3.519-2.584-1.776-.064-3.713.226-3.713 1.615 0 1.195 1.195 1.453 4.004 2.099.645.161 5.198 1.066 6.65 1.615 2.616.968 3.875 2.325 3.488 5.199-.872 6.394-9.17 7.427-13.4 7.427-5.294.032-10.88-.969-12.042-6.2-.086-.43-.15-1.087-.194-1.97h8.588zM54.532 7.234 49.14 15.5h6.07l-.678-8.267zm10.3 15.306h-9.17l-.226-2.583h-8.911l-1.711 2.583h-9.719L51.142.775h9.88V.743l3.81 21.797zm-29.35-3.746c-1.969 2.132-5.423 4.263-11.3 4.263-7.135 0-9.944-2.551-11.364-5.038a9.104 9.104 0 0 1-1.098-5.328C12.01 9.688 14.916.097 27.573.097c7.103 0 9.912 2.325 10.977 4.908.84 2.035.549 5.232.484 5.49H30.77c.258-1.614-.226-4.262-3.067-4.295-3.164-.032-6.167 2.325-7.006 5.393-.937 3.39.968 5.49 4.003 5.554 3.261.065 4.81-2.583 4.875-2.648h8.492c-.097.194-.388.97-.581 1.357-.388.807-1.001 1.873-2.002 2.938z" fill="#000007"/>
        </g>
    </g>
</svg>
